<?xml version="1.0" standalone="no"?>
<!DOCTYPE svg PUBLIC "-//W3C//DTD SVG 20010904//EN"
 "http://www.w3.org/TR/2001/REC-SVG-20010904/DTD/svg10.dtd">
<svg version="1.0" xmlns="http://www.w3.org/2000/svg"
 width="300.000000pt" height="300.000000pt" viewBox="0 0 300.000000 300.000000"
 preserveAspectRatio="xMidYMid meet">
<metadata>
Created by potrace 1.10, written by Peter Selinger 2001-2011
</metadata>
<g transform="translate(0.000000,300.000000) scale(0.100000,-0.100000)"
fill="#000000" stroke="none">
<path d="M821 2150 c-46 -11 -88 -17 -94 -13 -6 3 -7 1 -4 -4 4 -6 -31 -29
-80 -54 -62 -31 -101 -60 -142 -103 -31 -32 -61 -64 -68 -71 -7 -7 -10 -15 -7
-18 3 -3 -6 -13 -20 -22 -15 -10 -25 -23 -24 -29 1 -6 -8 -33 -21 -61 -12 -27
-25 -62 -28 -77 -3 -16 -9 -28 -13 -28 -4 0 -8 -10 -8 -22 -1 -64 -12 -210
-17 -218 -3 -4 0 -10 6 -12 6 -2 11 -22 11 -43 0 -22 4 -42 8 -45 4 -3 10 -18
11 -35 2 -16 6 -32 10 -35 14 -13 49 -102 43 -112 -4 -6 -3 -8 3 -5 6 4 29
-17 52 -46 65 -84 86 -107 97 -107 5 0 17 -8 25 -17 26 -29 53 -48 74 -51 11
-2 22 -7 25 -11 7 -11 134 -63 146 -60 5 2 36 -3 69 -10 59 -13 224 -7 265 9
3 1 8 2 13 1 4 -1 23 5 42 14 20 8 43 12 53 9 14 -5 15 -4 2 5 -9 7 -10 11 -3
11 6 0 24 5 40 12 15 6 30 12 33 12 11 2 97 66 128 95 19 17 38 28 44 25 7 -4
8 -2 4 5 -5 7 8 27 30 49 20 20 36 38 35 40 0 1 -1 9 -1 18 0 14 2 15 17 3 9
-8 14 -9 10 -2 -6 10 9 60 23 73 3 3 5 10 6 15 1 25 17 65 26 65 5 0 7 4 4 8
-3 5 2 46 10 93 8 46 17 116 19 155 2 48 10 84 24 110 42 77 61 109 61 100 0
-5 11 2 24 15 54 54 103 79 160 84 22 2 43 5 46 6 16 5 88 -2 119 -12 57 -19
128 -57 134 -72 3 -8 0 -21 -6 -28 -10 -11 -9 -11 4 -1 14 11 21 8 42 -17 44
-53 105 -203 74 -184 -7 4 -8 0 -1 -13 20 -43 -6 -234 -28 -203 -8 11 -8 10
-4 -5 5 -13 -5 -37 -30 -73 -33 -48 -55 -71 -38 -40 3 6 -4 0 -17 -15 -46 -52
-144 -86 -234 -82 -69 4 -158 30 -150 45 4 5 0 6 -7 4 -8 -3 -38 18 -68 50
-30 30 -60 55 -66 55 -10 0 -37 -45 -48 -83 -3 -10 -10 -15 -16 -12 -5 3 -7 0
-5 -7 3 -7 -9 -35 -27 -62 -66 -98 -64 -94 -50 -116 7 -12 10 -25 7 -30 -3 -6
1 -7 10 -4 10 4 27 -4 45 -21 16 -15 33 -24 39 -20 7 3 10 1 9 -5 -2 -7 8 -14
21 -16 14 -3 34 -12 45 -22 11 -9 16 -12 12 -5 -9 17 44 -11 55 -29 5 -7 9 -8
9 -2 0 8 24 7 83 -3 115 -21 220 -12 337 27 110 37 211 99 270 164 19 22 42
47 50 56 34 37 79 126 108 212 10 32 21 56 23 54 11 -11 0 276 -11 304 -7 16
-10 36 -7 44 3 8 3 16 -1 18 -15 6 -64 116 -57 127 3 6 2 10 -3 9 -13 -4 -103
108 -94 117 4 5 2 5 -5 1 -7 -4 -17 2 -23 14 -6 11 -16 20 -23 20 -7 0 -21 9
-30 21 -24 27 -206 113 -234 111 -13 -1 -23 2 -23 6 0 4 -8 8 -17 9 -10 1 -50
5 -89 9 -42 4 -105 1 -155 -6 -46 -7 -94 -13 -106 -14 -12 0 -21 -5 -20 -11 1
-5 -7 -10 -18 -10 -11 0 -27 -4 -35 -10 -37 -25 -60 -33 -60 -23 0 5 -8 1 -17
-9 -10 -11 -40 -38 -68 -59 -27 -21 -56 -45 -63 -52 -8 -7 -18 -9 -24 -6 -6 4
-8 3 -5 -3 7 -12 -41 -85 -52 -79 -4 3 -8 0 -8 -7 0 -7 -8 -26 -18 -41 -11
-16 -20 -36 -22 -45 -4 -29 -40 -90 -48 -83 -4 4 -4 -3 -1 -15 4 -12 2 -41 -4
-64 -6 -23 -13 -80 -16 -128 -4 -87 -31 -194 -46 -185 -7 5 -12 -10 -9 -28 2
-14 -42 -57 -52 -51 -6 3 -7 1 -4 -4 8 -13 -27 -46 -38 -36 -4 5 -5 3 -2 -3 8
-14 -75 -54 -127 -60 -22 -3 -47 -7 -54 -10 -7 -2 -22 1 -32 6 -13 7 -20 6
-22 -2 -3 -8 -9 -8 -25 1 -12 6 -31 11 -42 11 -11 0 -26 6 -33 13 -7 8 -19 12
-27 9 -8 -3 -11 0 -7 7 4 6 1 11 -7 11 -17 0 -68 46 -60 54 4 3 0 6 -7 6 -18
0 -51 40 -43 53 3 5 1 7 -4 4 -13 -8 -54 97 -47 118 4 8 1 15 -5 15 -7 0 -11
25 -11 70 0 39 4 70 9 70 12 0 21 39 11 45 -28 17 127 218 160 207 7 -3 10 0
6 6 -8 13 21 22 129 41 69 12 173 -12 219 -50 6 -5 28 -22 48 -38 21 -15 35
-31 32 -33 -2 -3 4 -5 15 -4 28 1 71 52 75 89 1 4 6 11 11 15 11 8 50 81 50
93 0 4 10 19 22 33 13 14 18 26 12 26 -5 0 -7 5 -4 10 4 6 1 9 -7 8 -7 -2 -12
3 -10 10 1 8 -2 11 -7 8 -8 -5 -36 20 -36 33 0 3 -8 5 -17 4 -10 -2 -18 2 -18
7 0 6 -7 10 -16 10 -9 0 -12 5 -8 12 4 7 3 8 -5 4 -13 -8 -83 12 -92 27 -4 5
-20 10 -36 11 -16 2 -35 6 -41 10 -6 3 -59 8 -119 11 -83 3 -127 0 -192 -15z
m307 -21 c29 -6 76 -20 105 -32 63 -26 167 -88 167 -99 0 -5 -27 -56 -60 -115
-33 -58 -60 -109 -60 -114 0 -16 -12 -9 -62 35 -150 136 -399 114 -525 -45
-57 -72 -77 -140 -78 -259 0 -97 2 -110 32 -172 42 -90 101 -151 182 -190 59
-28 76 -32 156 -32 81 -1 96 2 155 31 72 35 118 74 157 136 39 61 53 118 63
247 15 193 75 325 201 444 131 123 275 178 464 178 119 -1 191 -18 300 -71
358 -176 462 -646 213 -968 -72 -93 -194 -179 -307 -213 -133 -42 -301 -43
-426 -4 -57 18 -167 76 -205 107 l-26 22 35 45 c19 25 51 80 71 123 l37 79 21
-30 c57 -79 204 -140 313 -128 140 14 235 80 296 204 37 74 38 79 38 186 0
104 -2 115 -32 178 -94 199 -314 278 -509 183 -126 -62 -204 -207 -204 -384
-1 -187 -119 -395 -288 -508 -65 -43 -188 -89 -259 -98 -99 -12 -117 -12 -190
-4 -201 22 -366 122 -474 287 -81 123 -116 274 -99 422 12 101 25 141 72 233
73 140 219 262 369 308 121 37 227 42 357 18z"/>
<path d="M1441 1124 c0 -11 3 -14 6 -6 3 7 2 16 -1 19 -3 4 -6 -2 -5 -13z"/>
</g>
</svg>
